<svg width="1643" height="11661" viewBox="0 0 1643 11661" fill="none" xmlns="http://www.w3.org/2000/svg">
<g clip-path="url(#clip0_526_42)">
<rect width="1643" height="11661" fill="#EFE8DF"/>
<path d="M1837.69 902.876C1703.95 877.26 1444.09 878.934 1474.6 1090.56C1487.45 1158.25 1384.61 1264.18 870.481 1146.39C356.356 1028.59 243.702 1231 251.641 1346.93" stroke="#0F0F0F" stroke-width="50"/>
<path d="M251.251 1337.82C262.772 1453.74 167.916 1694.89 -303.678 1732.07" stroke="black" stroke-width="50"/>
<path d="M-185.118 1123.66C-10.3885 1124.3 317.247 1062.06 229.953 808.011C198.135 727.46 303.532 572.937 979.665 599.247C1655.8 625.556 1751.35 349.717 1714.6 208.509" stroke="#0F0F0F" stroke-width="50"/>
<path d="M1642.74 2005C1489.23 1975.83 1190.88 1972.81 1225.51 2194.1C1240.14 2264.94 1121.86 2373.55 531.798 2241.24C-58.2676 2108.94 -187.988 2318 -179.09 2439.07" stroke="#0F0F0F" stroke-width="50"/>
<path d="M-87.9804 2818.22C59.1556 2765.62 353.443 2716.41 353.506 2940.4C350.034 3012.65 483.704 3101.62 1046.15 2879.51C1608.6 2657.39 1769.14 2843.83 1779.1 2964.81" stroke="#0F0F0F" stroke-width="50"/>
<path d="M-359.772 3449C-366.272 3641.33 -236.072 3968.3 336.728 3737.5C909.528 3506.7 1066.06 3595 1072.73 3668C1052.89 3774.17 1218.13 3908.9 2037.73 3598.5" stroke="black" stroke-width="50"/>
<path d="M1819.69 4779.6C1685.95 4753.99 1426.09 4755.66 1456.6 4967.28C1469.45 5034.97 1366.61 5140.91 852.481 5023.11C338.356 4905.31 225.702 5107.73 233.641 5223.66" stroke="#0F0F0F" stroke-width="50"/>
<path d="M233.251 5214.54C244.772 5330.47 149.916 5571.62 -321.678 5608.8" stroke="black" stroke-width="50"/>
<path d="M-203.118 5000.38C-28.3885 5001.02 299.247 4938.79 211.953 4684.74C180.135 4604.19 285.532 4449.66 961.665 4475.97C1637.8 4502.28 1733.35 4226.44 1696.6 4085.23" stroke="#0F0F0F" stroke-width="50"/>
<path d="M1624.74 5881.73C1471.23 5852.56 1172.88 5849.53 1207.51 6070.83C1222.14 6141.67 1103.86 6250.27 513.798 6117.97C-76.2676 5985.66 -205.988 6194.72 -197.09 6315.79" stroke="#0F0F0F" stroke-width="50"/>
<path d="M-105.98 6694.95C41.1556 6642.34 335.443 6593.14 335.506 6817.12C332.034 6889.38 465.704 6978.35 1028.15 6756.23C1590.6 6534.12 1751.14 6720.55 1761.1 6841.54" stroke="#0F0F0F" stroke-width="50"/>
<path d="M-377.772 7325.73C-384.272 7518.06 -254.072 7845.03 318.728 7614.23C891.528 7383.43 1048.06 7471.73 1054.73 7544.73C1034.89 7650.89 1200.13 7785.63 2019.73 7475.23" stroke="black" stroke-width="50"/>
<path d="M1819.69 8716.6C1685.95 8690.99 1426.09 8692.66 1456.6 8904.28C1469.45 8971.97 1366.61 9077.91 852.481 8960.11C338.356 8842.31 225.702 9044.73 233.641 9160.66" stroke="#0F0F0F" stroke-width="50"/>
<path d="M233.251 9151.54C244.772 9267.47 149.916 9508.62 -321.678 9545.8" stroke="black" stroke-width="50"/>
<path d="M-203.118 8937.38C-28.3885 8938.02 299.247 8875.79 211.953 8621.74C180.135 8541.19 285.532 8386.66 961.665 8412.97C1637.8 8439.28 1733.35 8163.44 1696.6 8022.23" stroke="#0F0F0F" stroke-width="50"/>
<path d="M1624.74 9818.73C1471.23 9789.56 1172.88 9786.53 1207.51 10007.8C1222.14 10078.7 1103.86 10187.3 513.798 10055C-76.2676 9922.66 -205.988 10131.7 -197.09 10252.8" stroke="#0F0F0F" stroke-width="50"/>
<path d="M-105.98 10631.9C41.1556 10579.3 335.443 10530.1 335.506 10754.1C332.034 10826.4 465.704 10915.3 1028.15 10693.2C1590.6 10471.1 1751.14 10657.6 1761.1 10778.5" stroke="#0F0F0F" stroke-width="50"/>
<path d="M-377.772 11262.7C-384.272 11455.1 -254.072 11782 318.728 11551.2C891.528 11320.4 1048.06 11408.7 1054.73 11481.7C1034.89 11587.9 1200.13 11722.6 2019.73 11412.2" stroke="black" stroke-width="50"/>
</g>
<defs>
<clipPath id="clip0_526_42">
<rect width="1643" height="11661" fill="white"/>
</clipPath>
</defs>
</svg>
