<svg width="1643" height="4524" viewBox="0 0 1643 4524" fill="none" xmlns="http://www.w3.org/2000/svg">
<g clip-path="url(#clip0_526_42)">
<rect width="1643" height="4524" fill="#EFE8DF"/>
<path d="M1837.69 902.876C1703.95 877.26 1444.09 878.934 1474.6 1090.56C1487.45 1158.25 1384.61 1264.18 870.482 1146.39C356.357 1028.59 243.703 1231 251.642 1346.93" stroke="#0F0F0F" stroke-width="50"/>
<path d="M251.251 1337.82C262.772 1453.74 167.916 1694.89 -303.678 1732.07" stroke="black" stroke-width="50"/>
<path d="M-185.118 1123.66C-10.3885 1124.3 317.247 1062.06 229.953 808.011C198.135 727.46 303.532 572.937 979.665 599.247C1655.8 625.556 1751.35 349.717 1714.6 208.509" stroke="#0F0F0F" stroke-width="50"/>
<path d="M1642.74 2005C1489.23 1975.83 1190.88 1972.81 1225.51 2194.1C1240.14 2264.94 1121.86 2373.55 531.797 2241.24C-58.2681 2108.94 -187.988 2318 -179.09 2439.07" stroke="#0F0F0F" stroke-width="50"/>
<path d="M-87.9804 2818.22C59.1556 2765.62 353.443 2716.41 353.506 2940.4C350.034 3012.65 483.704 3101.62 1046.15 2879.51C1608.6 2657.39 1769.14 2843.83 1779.1 2964.81" stroke="#0F0F0F" stroke-width="50"/>
<path d="M-359.772 3449C-366.272 3641.33 -236.072 3968.3 336.728 3737.5C909.528 3506.7 1066.06 3595 1072.73 3668C1052.89 3774.17 1218.13 3908.9 2037.73 3598.5" stroke="black" stroke-width="50"/>
</g>
<defs>
<clipPath id="clip0_526_42">
<rect width="1643" height="4524" fill="white"/>
</clipPath>
</defs>
</svg>
