<svg width="1643" height="14175" viewBox="0 0 1643 14175" fill="none" xmlns="http://www.w3.org/2000/svg">
<g clip-path="url(#clip0_604_10)">
<rect width="1643" height="14175" fill="#EFE8DF"/>
<path d="M1642.74 1648C1489.23 1618.83 1190.88 1615.81 1225.51 1837.1C1240.14 1907.94 1121.86 2016.55 531.798 1884.24C-58.2676 1751.94 -187.988 1961 -179.09 2082.07" stroke="#0F0F0F" stroke-opacity="0.2" stroke-width="30"/>
<path d="M-87.9804 2818.22C59.1556 2765.62 353.443 2716.41 353.506 2940.4C350.034 3012.65 483.704 3101.62 1046.15 2879.51C1608.6 2657.39 1769.14 2843.83 1779.1 2964.81" stroke="#0F0F0F" stroke-opacity="0.2" stroke-width="30"/>
<path d="M-359.772 3449C-366.272 3641.33 -236.072 3968.3 336.728 3737.5C909.528 3506.7 1066.06 3595 1072.73 3668C1052.89 3774.17 1218.13 3908.9 2037.73 3598.5" stroke="black" stroke-opacity="0.2" stroke-width="30"/>
<path d="M1624.74 5625C1471.23 5595.83 1172.88 5592.81 1207.51 5814.1C1222.14 5884.94 1103.86 5993.55 513.798 5861.24C-76.2676 5728.94 -205.988 5938 -197.09 6059.07" stroke="#0F0F0F" stroke-opacity="0.2" stroke-width="30"/>
<path d="M-160.118 12610.4C14.612 12611 342.248 12548.8 254.953 12294.7C223.135 12214.2 328.533 12059.7 1004.67 12086C1680.8 12112.3 1776.35 11836.4 1739.6 11695.2" stroke="#0F0F0F" stroke-opacity="0.2" stroke-width="30"/>
<path d="M1659.74 13077C1506.23 13047.8 1207.88 13044.8 1242.51 13266.1C1257.14 13336.9 1138.86 13445.5 548.798 13313.2C-41.2676 13180.9 -170.988 13390 -162.09 13511.1" stroke="#0F0F0F" stroke-opacity="0.2" stroke-width="30"/>
<path d="M-105.98 6694.95C41.1556 6642.34 335.443 6593.14 335.506 6817.12C332.034 6889.38 465.704 6978.35 1028.15 6756.23C1590.6 6534.12 1751.14 6720.55 1761.1 6841.54" stroke="#0F0F0F" stroke-opacity="0.2" stroke-width="30"/>
<path d="M-377.772 7572C-384.272 7764.33 -254.072 8091.3 318.728 7860.5C891.528 7629.7 1048.06 7718 1054.73 7791C1034.89 7897.17 1200.13 8031.9 2019.73 7721.5" stroke="black" stroke-opacity="0.2" stroke-width="30"/>
<path d="M-203.118 9189.38C-28.388 9190.02 299.248 9127.79 211.953 8873.74C180.135 8793.19 285.533 8638.66 961.665 8664.97C1637.8 8691.28 1733.35 8415.44 1696.6 8274.23" stroke="#0F0F0F" stroke-opacity="0.2" stroke-width="30"/>
<path d="M1624.74 9818.73C1471.23 9789.56 1172.88 9786.53 1207.51 10007.8C1222.14 10078.7 1103.86 10187.3 513.798 10055C-76.2676 9922.66 -205.988 10131.7 -197.09 10252.8" stroke="#0F0F0F" stroke-opacity="0.2" stroke-width="30"/>
<path d="M-377.772 10863C-384.272 11055.3 -254.072 11382.3 318.728 11151.5C891.528 10920.7 1048.06 11009 1054.73 11082C1034.89 11188.2 1200.13 11322.9 2019.73 11012.5" stroke="black" stroke-opacity="0.2" stroke-width="30"/>
<path d="M-25.1177 5103.38C149.612 5104.02 477.248 5041.79 389.953 4787.74C358.135 4707.19 463.533 4552.66 1139.67 4578.97C1815.8 4605.28 1911.35 4329.44 1874.6 4188.23" stroke="#0F0F0F" stroke-opacity="0.2" stroke-width="30"/>
<path d="M-121.118 1157.38C53.612 1158.02 381.248 1095.79 293.953 841.736C262.135 761.186 367.533 606.663 1043.67 632.972C1719.8 659.282 1815.35 383.443 1778.6 242.235" stroke="#0F0F0F" stroke-opacity="0.2" stroke-width="30"/>
</g>
<defs>
<clipPath id="clip0_604_10">
<rect width="1643" height="14175" fill="white"/>
</clipPath>
</defs>
</svg>
